<svg width="20" height="20" viewBox="0 0 20 20" fill="none" xmlns="http://www.w3.org/2000/svg">
<g clip-path="url(#clip0_48_1085)">
<path d="M17.7778 16.1111H2.22221C2.07487 16.1111 1.93356 16.0526 1.82937 15.9484C1.72519 15.8442 1.66666 15.7029 1.66666 15.5556C1.66666 15.4082 1.72519 15.2669 1.82937 15.1627C1.93356 15.0585 2.07487 15 2.22221 15H17.7778C17.9251 15 18.0664 15.0585 18.1706 15.1627C18.2748 15.2669 18.3333 15.4082 18.3333 15.5556C18.3333 15.7029 18.2748 15.8442 18.1706 15.9484C18.0664 16.0526 17.9251 16.1111 17.7778 16.1111Z" fill="#1E1E1E"/>
<path d="M13.4815 10.5554H2.07406C1.96601 10.5554 1.86239 10.4969 1.78598 10.3927C1.70958 10.2885 1.66666 10.1472 1.66666 9.99989C1.66666 9.85255 1.70958 9.71124 1.78598 9.60705C1.86239 9.50287 1.96601 9.44434 2.07406 9.44434H13.4815C13.5895 9.44434 13.6931 9.50287 13.7696 9.60705C13.846 9.71124 13.8889 9.85255 13.8889 9.99989C13.8889 10.1472 13.846 10.2885 13.7696 10.3927C13.6931 10.4969 13.5895 10.5554 13.4815 10.5554Z" fill="#1E1E1E"/>
<path d="M17.7778 5.00003H2.22221C2.07487 5.00003 1.93356 4.9415 1.82937 4.83731C1.72519 4.73312 1.66666 4.59181 1.66666 4.44447C1.66666 4.29713 1.72519 4.15582 1.82937 4.05163C1.93356 3.94745 2.07487 3.88892 2.22221 3.88892H17.7778C17.9251 3.88892 18.0664 3.94745 18.1706 4.05163C18.2748 4.15582 18.3333 4.29713 18.3333 4.44447C18.3333 4.59181 18.2748 4.73312 18.1706 4.83731C18.0664 4.9415 17.9251 5.00003 17.7778 5.00003Z" fill="#1E1E1E"/>
</g>
<defs>
<clipPath id="clip0_48_1085">
<rect width="20" height="20" fill="white"/>
</clipPath>
</defs>
</svg>
